<svg viewBox="0 0 75 75" fill="currentColor" xmlns="http://www.w3.org/2000/svg">  <path fill-rule="evenodd" clip-rule="evenodd" d="M37.9635 37.2122C37.9635 37.2122 40.3484 20.0111 47.2872 9.56935C48.0045 8.03686 48.9957 6.58332 50.2585 5.28633C55.8581 -0.46498 64.6777 -0.960026 69.9576 4.18061C75.2375 9.32125 74.9783 18.1509 69.3787 23.9022C68.6157 24.6858 67.793 25.3719 66.9276 25.9594C56.9736 34.0567 37.9635 37.2122 37.9635 37.2122ZM36.4471 38.5743C36.4471 38.5743 19.3166 41.4178 9.06392 48.6329C7.55103 49.3909 6.12438 50.4206 4.86151 51.7177C-0.738118 57.469 -0.997318 66.2987 4.28257 71.4393C9.56246 76.58 18.382 76.0849 23.9817 70.3336C24.7448 69.5498 25.4087 68.7088 25.973 67.8278C33.8009 57.6608 36.4471 38.5743 36.4471 38.5743ZM8.94292 27.8182C19.3847 34.7566 36.585 37.1413 36.585 37.1413C36.585 37.1413 33.4296 18.1316 25.3325 8.17757C24.745 7.31214 24.0589 6.48941 23.2753 5.72644C17.524 0.12682 8.6943 -0.132382 3.55366 5.14751C-1.58698 10.4274 -1.09193 19.247 4.65937 24.8466C5.95652 26.1095 7.41024 27.1008 8.94292 27.8182ZM37.781 38.5902C37.781 38.5902 54.9813 40.9749 65.4231 47.9133C66.9558 48.6307 68.4095 49.622 69.7067 50.8849C75.458 56.4845 75.953 65.3041 70.8124 70.584C65.6717 75.8639 56.8421 75.6047 51.0908 70.0051C50.3071 69.2421 49.6211 68.4194 49.0336 67.5539C40.9365 57.5999 37.781 38.5902 37.781 38.5902Z" fill="#FB6382" stroke="#FB6382"></path>  <path fill-rule="evenodd" clip-rule="evenodd" d="M37.9635 37.2122C37.9635 37.2122 40.3484 20.0111 47.2872 9.56935C48.0045 8.03686 48.9957 6.58332 50.2585 5.28633C55.8581 -0.46498 64.6777 -0.960026 69.9576 4.18061C75.2375 9.32125 74.9783 18.1509 69.3787 23.9022C68.6157 24.6858 67.793 25.3719 66.9276 25.9594C56.9736 34.0567 37.9635 37.2122 37.9635 37.2122ZM36.4471 38.5743C36.4471 38.5743 19.3166 41.4178 9.06392 48.6329C7.55103 49.3909 6.12438 50.4206 4.86151 51.7177C-0.738118 57.469 -0.997318 66.2987 4.28257 71.4393C9.56246 76.58 18.382 76.0849 23.9817 70.3336C24.7448 69.5498 25.4087 68.7088 25.973 67.8278C33.8009 57.6608 36.4471 38.5743 36.4471 38.5743ZM8.94292 27.8182C19.3847 34.7566 36.585 37.1413 36.585 37.1413C36.585 37.1413 33.4296 18.1316 25.3325 8.17757C24.745 7.31214 24.0589 6.48941 23.2753 5.72644C17.524 0.12682 8.6943 -0.132382 3.55366 5.14751C-1.58698 10.4274 -1.09193 19.247 4.65937 24.8466C5.95652 26.1095 7.41024 27.1008 8.94292 27.8182ZM37.781 38.5902C37.781 38.5902 54.9813 40.9749 65.4231 47.9133C66.9558 48.6307 68.4095 49.622 69.7067 50.8849C75.458 56.4845 75.953 65.3041 70.8124 70.584C65.6717 75.8639 56.8421 75.6047 51.0908 70.0051C50.3071 69.2421 49.6211 68.4194 49.0336 67.5539C40.9365 57.5999 37.781 38.5902 37.781 38.5902Z" fill="#FB6382" stroke="#FB6382"></path>  <ellipse cx="37.1337" cy="37.8795" rx="0.833932" ry="21.0866" fill="#FB6382" stroke="#FB6382"></ellipse>  <ellipse cx="37.0148" cy="37.8794" rx="0.833932" ry="21.0866" transform="rotate(-90 37.0148 37.8794)" fill="#FB6382" stroke="#FB6382"></ellipse></svg>